<?xml version="1.0" encoding="utf-8"?>
<!-- Generator: Adobe Illustrator 15.0.0, SVG Export Plug-In . SVG Version: 6.00 Build 0)  -->
<!DOCTYPE svg PUBLIC "-//W3C//DTD SVG 1.1//EN" "http://www.w3.org/Graphics/SVG/1.1/DTD/svg11.dtd">
<svg version="1.1" id="Layer_1" xmlns="http://www.w3.org/2000/svg" xmlns:xlink="http://www.w3.org/1999/xlink" x="0px" y="0px"
	 width="40px" height="35px" viewBox="0 0 40 35" enable-background="new 0 0 40 35" xml:space="preserve">
<g>
	<g id="Layer_1_1_">
		<path fill-rule="evenodd" clip-rule="evenodd" fill="#8F7F7F" d="M33.25,12.95c-0.299,0.467-0.416,0.95-0.35,1.45
			c0.133,0.5,0.4,0.9,0.801,1.2c0.432,0.3,0.916,0.417,1.449,0.35c0.5-0.133,0.9-0.4,1.199-0.8c0.301-0.4,0.418-0.867,0.352-1.4
			c-0.102-0.533-0.385-0.933-0.852-1.2c-0.365-0.333-0.799-0.45-1.299-0.35C34.018,12.267,33.584,12.517,33.25,12.95z M32.35,26.801
			c-0.432-0.301-0.898-0.418-1.398-0.351c-0.533,0.101-0.934,0.366-1.201,0.8c-0.332,0.434-0.449,0.917-0.35,1.45
			c0.1,0.467,0.367,0.851,0.801,1.149c0.398,0.268,0.865,0.367,1.398,0.301c0.5-0.066,0.918-0.316,1.25-0.75
			c0.234-0.434,0.318-0.9,0.25-1.4C33.033,27.5,32.783,27.1,32.35,26.801z M28.9,19.75c0.166-0.1,0.533-0.25,1.1-0.449l0.6,3.25
			c-0.799-0.801-1.35-1.551-1.648-2.25L28.9,19.75z M26.85,8.45l-2.799,0.5l0.35,2.15l2.85-0.45L26.85,8.45z M23.15,4.2l0.4,2.1
			l2.85-0.5l-0.35-2.1L23.15,4.2z M11.65,26.1l-2.9,0.451l0.4,2.199l2.85-0.5L11.65,26.1z M10.75,21.25L7.9,21.7l0.4,2.25l2.35-0.45
			c-0.1,0.2-0.117,0.4-0.05,0.6c0.033,0.834,0.783,1.4,2.25,1.701l0.8,4.399l12.551-2.149L25.15,22.35
			c0.066-0.033,0.133-0.066,0.199-0.1c1.033,1.167,1.967,2.133,2.801,2.9l0.199,0.35c-0.1,0.066-0.199,0.167-0.299,0.301
			c-0.768,0.866-1.084,1.85-0.951,2.949L8.55,31.95L4,5.95l22.951-4l2.449,13.9c-0.934,0.233-1.783,0.467-2.551,0.7
			c-0.232-0.3-0.432-0.567-0.6-0.8l1.85-0.35l-0.35-2.1l-2.85,0.5l0.051,0.25c-0.568-0.767-1.117-1.434-1.65-2L22,4.6L9.5,6.8
			l2,11.35l9-1.6c0.201,0.267,0.418,0.516,0.651,0.75L11.6,18.95l0.65,3.55c-0.6,0.233-0.933,0.367-1,0.4
			c-0.066,0-0.133,0.033-0.2,0.1L10.75,21.25z M10.25,18.551l-0.3-2.101l-2.85,0.5L7.45,19L10.25,18.551z M8.2,6.8L5.35,7.35
			l0.4,2.1L8.6,9L8.2,6.8z M6.2,12.15l0.4,2.05l2.85-0.45l-0.35-2.1L6.2,12.15z M34.301,11.05c0.9-0.167,1.684-0.067,2.35,0.3
			c0.801,0.433,1.268,1.083,1.4,1.95c0.166,0.9,0,1.716-0.5,2.45c-0.533,0.867-1.484,1.4-2.85,1.6c-0.068,0-0.367,0.018-0.9,0.051
			s-0.834,0.066-0.9,0.1c-0.834,0.2-1.699,0.434-2.6,0.7c-1.668,0.634-2.467,1.183-2.4,1.649c0.232,1.334,1.367,2.867,3.4,4.601
			c1.133,0.933,1.816,1.517,2.049,1.75c0.635,0.634,1.018,1.217,1.15,1.75c0.1,0.767-0.016,1.467-0.35,2.101
			c-0.367,0.799-1.051,1.299-2.051,1.5c-0.6,0.066-1.217,0.016-1.85-0.15C28.951,31,28.201,30.15,28,28.85
			c-0.133-0.933,0.117-1.75,0.75-2.449c0.268-0.367,0.584-0.667,0.951-0.9l-1-0.9c-0.867-0.933-1.9-2.049-3.102-3.35
			c-4.199,1.6-7.149,2.7-8.85,3.301c-0.933,0.332-1.417,0.516-1.45,0.549c-0.667,0.101-1.417,0.067-2.25-0.1
			c-0.967-0.233-1.5-0.583-1.6-1.05c-0.033-0.101,0.033-0.2,0.2-0.3c0.1-0.066,0.5-0.233,1.2-0.5c2.2-0.834,4.184-1.617,5.95-2.35
			c1.066-0.434,2.651-1.101,4.75-2c-0.234-0.268-1.918-2.284-5.051-6.051c-0.733-0.933-1.533-1.983-2.4-3.15
			c-0.367-0.567-0.633-0.833-0.8-0.8c0-0.067,0.083-0.133,0.25-0.2c0.233-0.033,0.417-0.067,0.55-0.1
			c1.067-0.233,2.233,0.133,3.5,1.1c1.867,1.4,4.15,4.067,6.851,8c1.266-0.399,2.666-0.816,4.199-1.25
			c0.967-0.267,1.416-0.533,1.35-0.8c0-0.067-0.066-0.233-0.199-0.5c-0.168-0.333-0.25-0.534-0.25-0.6
			c-0.133-0.934,0.082-1.717,0.65-2.35C32.734,11.533,33.434,11.184,34.301,11.05z"/>
	</g>
</g>
</svg>
