<?xml version="1.0" encoding="utf-8"?>
<!-- Generator: Adobe Illustrator 15.0.0, SVG Export Plug-In . SVG Version: 6.00 Build 0)  -->
<!DOCTYPE svg PUBLIC "-//W3C//DTD SVG 1.1//EN" "http://www.w3.org/Graphics/SVG/1.1/DTD/svg11.dtd">
<svg version="1.1" id="Layer_1" xmlns="http://www.w3.org/2000/svg" xmlns:xlink="http://www.w3.org/1999/xlink" x="0px" y="0px"
	 width="40px" height="35px" viewBox="0 0 40 35" enable-background="new 0 0 40 35" xml:space="preserve">
<path fill-rule="evenodd" clip-rule="evenodd" fill="#8F7F7F" d="M28.65,25.649c-0.467,0-0.884,0.184-1.25,0.551
	c-0.301,0.299-0.45,0.666-0.45,1.1c-0.134,0.533-0.034,1,0.3,1.4c0.334,0.332,0.717,0.533,1.15,0.6c0.467,0.1,0.899-0.018,1.3-0.35
	c0.399-0.334,0.634-0.768,0.7-1.301c0.033-0.5-0.117-0.916-0.45-1.25c-0.3-0.367-0.667-0.617-1.101-0.75
	C28.75,25.649,28.684,25.649,28.65,25.649z M10.3,17.6c-0.667,0.667-1,1.467-1,2.399c0,0.934,0.333,1.734,1,2.4
	c0.667,0.633,1.467,0.95,2.4,0.95c0.9,0,1.7-0.317,2.4-0.95c0.667-0.666,1-1.467,1-2.4c0-0.933-0.333-1.732-1-2.399
	c-0.7-0.7-1.5-1.05-2.4-1.05C11.767,16.55,10.967,16.899,10.3,17.6z M5.45,15.749L3.15,13l2.55-2.6l2.8,2.3
	c0.667-0.4,1.35-0.684,2.05-0.85l0.3-3.6h3.7l0.35,3.6c0.767,0.167,1.45,0.45,2.05,0.85l2.85-2.3l2.55,2.6l-2.25,2.75
	c0.4,0.667,0.684,1.367,0.851,2.101l3.5,0.3v3.7l-3.5,0.351c-0.167,0.732-0.45,1.416-0.851,2.049l2.25,2.801l-2.55,2.6l-2.85-2.3
	c-0.6,0.399-1.284,0.7-2.05,0.899L14.55,31.8h-3.7l-0.3-3.551c-0.7-0.199-1.383-0.5-2.05-0.899l-2.8,2.3l-2.55-2.6l2.3-2.801
	c-0.4-0.633-0.717-1.316-0.95-2.049L1,21.85v-3.7l3.5-0.3C4.733,17.116,5.05,16.416,5.45,15.749z M34.7,27.249L34.5,29.1h-1.8
	c-0.101,0.433-0.284,0.8-0.55,1.101l1,1.6l-1.45,1.25l-1.3-1.45c-0.367,0.233-0.734,0.366-1.101,0.399L28.9,33.85l-1.851-0.2v-1.9
	c-0.333-0.133-0.683-0.316-1.05-0.549l-1.55,1l-1.15-1.5l1.351-1.301c-0.167-0.367-0.268-0.75-0.301-1.15L22.5,27.85l0.2-1.95H24.6
	c0.134-0.4,0.283-0.75,0.45-1.05l-0.95-1.601l1.45-1.299l1.25,1.399c0.366-0.167,0.75-0.267,1.15-0.3l0.35-1.9l1.9,0.25v1.85
	c0.366,0.134,0.7,0.334,1,0.601l1.55-1.101l1.15,1.601l-1.301,1.3c0.134,0.367,0.25,0.733,0.351,1.1L34.7,27.249z M31.6,12.45
	c0.5-0.4,0.801-0.967,0.9-1.7c0.066-0.667-0.117-1.267-0.55-1.8c-0.4-0.5-0.95-0.8-1.65-0.9c-0.066,0-0.167,0-0.3,0
	c-0.633,0-1.184,0.217-1.65,0.65c-0.5,0.4-0.766,0.917-0.8,1.55c-0.1,0.7,0.083,1.317,0.55,1.85c0.434,0.533,1,0.833,1.7,0.9
	C30.467,13.066,31.066,12.883,31.6,12.45z M32.2,4.75c0.566,0.167,1.066,0.433,1.5,0.8L35.85,4.1l1.7,2L35.7,8
	c0.233,0.5,0.384,1.033,0.45,1.6l2.55,0.5l-0.3,2.65H35.85c-0.232,0.533-0.5,1-0.8,1.4l1.45,2.25l-2.15,1.65L32.6,16.2
	c-0.533,0.199-1.066,0.366-1.6,0.5l-0.55,2.5l-2.601-0.201V16.3c-0.533-0.2-1.016-0.45-1.449-0.75l-2.2,1.45l-1.7-2.1l1.85-1.85
	c-0.199-0.5-0.35-1.017-0.449-1.55l-2.551-0.55l0.25-2.7l2.65,0.1c0.233-0.533,0.483-1.033,0.75-1.5l-1.4-2.1L25.65,3l1.85,1.9
	c0.467-0.267,0.983-0.45,1.55-0.55l0.55-2.5l2.65,0.25L32.2,4.75z"/>
</svg>
