<?xml version="1.0" encoding="utf-8"?>
<!-- Generator: Adobe Illustrator 15.0.0, SVG Export Plug-In . SVG Version: 6.00 Build 0)  -->
<!DOCTYPE svg PUBLIC "-//W3C//DTD SVG 1.1//EN" "http://www.w3.org/Graphics/SVG/1.1/DTD/svg11.dtd">
<svg version="1.1" id="Layer_1" xmlns="http://www.w3.org/2000/svg" xmlns:xlink="http://www.w3.org/1999/xlink" x="0px" y="0px"
	 width="45px" height="35px" viewBox="0 0 45 35" enable-background="new 0 0 45 35" xml:space="preserve">
<g>
	<g id="Layer_1_1_">
		<path fill-rule="evenodd" clip-rule="evenodd" fill="#8F7F7F" d="M21.6,30.053c0-0.201,0.066-0.367,0.2-0.5
			c0.066-0.134,0.2-0.201,0.399-0.201c0.167,0,0.334,0.051,0.5,0.15c0.101,0.1,0.15,0.25,0.15,0.45c0.167,0.467-0.2,0.899-1.1,1.3
			c-0.567,0.167-1.233,0.283-2,0.35c-0.801,0.033-1.5-0.016-2.101-0.149c-0.866-0.3-1.283-0.717-1.25-1.25
			c0-0.167,0.084-0.3,0.25-0.399c0.066-0.134,0.184-0.217,0.351-0.25c0.199,0,0.383,0.066,0.55,0.199c0.1,0.1,0.149,0.233,0.149,0.4
			c0.034-0.033,0.134-0.018,0.301,0.05c0.433,0.134,0.983,0.183,1.649,0.149c0.634-0.033,1.167-0.133,1.601-0.299
			C21.449,29.952,21.566,29.952,21.6,30.053z M18.3,23.053c0.1-0.134,0.25-0.168,0.45-0.101c0.166,0.033,0.3,0.134,0.399,0.3
			c0.066,0.133,0.084,0.301,0.05,0.5c-0.033,0.033-0.05,0.066-0.05,0.1c0.033,0.067,0.084,0.15,0.15,0.25h0.05
			c0.066,0.067,0.15,0.117,0.25,0.15h0.05c0.334,0.267,0.783,0.383,1.351,0.35c0.5-0.033,0.933-0.183,1.3-0.449l0.1-0.051
			c0.233-0.133,0.351-0.266,0.351-0.399c0.033-0.167,0.116-0.317,0.25-0.45c0.1-0.133,0.233-0.199,0.399-0.199
			c0.2,0.033,0.367,0.133,0.5,0.299c0.101,0.101,0.15,0.234,0.15,0.4c-0.033,0.566-0.367,1.066-1,1.5l0.05-0.05
			c-0.533,0.399-1.2,0.616-2,0.649c-0.833,0.033-1.55-0.116-2.15-0.449c-0.233-0.167-0.416-0.316-0.55-0.45l-0.05-0.05
			c-0.267-0.301-0.417-0.634-0.45-1c0-0.167,0.033-0.35,0.101-0.551C18.033,23.219,18.133,23.119,18.3,23.053z M20.75,16.852
			c0.133-0.1,0.283-0.133,0.449-0.1c0.134,0.033,0.284,0.15,0.45,0.35c0.066,0.133,0.084,0.283,0.05,0.45
			c-0.033,0.133-0.066,0.25-0.1,0.35v0.05c-0.134,0.399,0,0.816,0.4,1.25c0.333,0.366,0.8,0.616,1.399,0.75h0.05
			c0.534,0.167,1.017,0.167,1.45,0c0.2-0.167,0.367-0.333,0.5-0.5c0.101-0.134,0.25-0.217,0.45-0.25
			c0.167-0.067,0.316-0.033,0.45,0.101c0.133,0.066,0.233,0.183,0.3,0.35c0.066,0.199,0.033,0.366-0.1,0.5c-0.2,0.3-0.5,0.6-0.9,0.9
			h-0.05c-0.733,0.332-1.566,0.399-2.5,0.199h0.05c-0.833-0.166-1.517-0.566-2.05-1.199v-0.051c-0.667-0.767-0.9-1.566-0.7-2.4
			c0.033-0.167,0.066-0.3,0.1-0.4C20.449,17.069,20.55,16.952,20.75,16.852z M27.8,16.852c0.366,0,0.7-0.033,1-0.1
			c0.2-0.033,0.366,0.017,0.5,0.15c0.1,0.1,0.166,0.25,0.2,0.45c0.033,0.167,0.017,0.317-0.051,0.451
			c-0.133,0.1-0.283,0.166-0.449,0.199c-0.367,0.066-0.767,0.1-1.2,0.1l-0.05,0.051c-1.267,0-2.384-0.467-3.351-1.4
			c-0.833-1.033-1.283-2.233-1.35-3.6c0-1.367,0.434-2.517,1.3-3.45c0.134-0.167,0.283-0.25,0.45-0.25c0.166,0,0.333,0.066,0.5,0.2
			c0.1,0.067,0.149,0.184,0.149,0.35c0.034,0.2,0,0.383-0.1,0.55c-0.667,0.667-1,1.533-1,2.6c0,1.034,0.316,1.917,0.95,2.65
			l0.05,0.1C26.05,16.535,26.866,16.852,27.8,16.852z M31,6.452c-0.067,0.167-0.184,0.3-0.351,0.4c-0.233,0.1-0.434,0.283-0.6,0.55
			c-0.634,0.833-0.967,1.717-1,2.65v0.1c-0.033,0.067-0.05,0.15-0.05,0.25c0.066,1.167,0.517,2.217,1.35,3.15
			c0.1,0.066,0.233,0.133,0.4,0.2l0.05,0.05c0.233,0.167,0.467,0.283,0.7,0.35l0.1,0.05c0.3,0.133,0.6,0.233,0.9,0.3
			c0.166,0.033,0.333,0.133,0.5,0.3c0.066,0.133,0.083,0.283,0.05,0.45c-0.033,0.2-0.134,0.35-0.3,0.45
			c-0.134,0.066-0.284,0.1-0.45,0.1c-0.467-0.133-0.9-0.284-1.3-0.45h0.1c-0.3-0.1-0.616-0.233-0.95-0.4
			c-0.267-0.167-0.517-0.333-0.75-0.5l-0.05-0.05c-1-1.167-1.533-2.483-1.6-3.95c0-0.133,0-0.3,0-0.5
			c0.066-1.2,0.466-2.283,1.199-3.25L29,6.602c0.3-0.367,0.633-0.65,1-0.85c0.166-0.133,0.333-0.167,0.5-0.1
			c0.133,0.034,0.267,0.133,0.399,0.3C31,6.085,31.033,6.252,31,6.452z M13.35,17.502c0.1,0.133,0.134,0.283,0.1,0.45
			c-0.1,0.2-0.216,0.351-0.35,0.45c-0.134,0.066-0.283,0.083-0.45,0.05c-0.2-0.033-0.366-0.05-0.5-0.05
			c-0.366,0.033-0.633,0.184-0.8,0.449l0.05-0.049c-0.233,0.332-0.316,0.716-0.25,1.149c0,0.101,0,0.2,0,0.3
			c0.033,0.167-0.017,0.334-0.149,0.5c-0.134,0.1-0.284,0.167-0.45,0.2c-0.167,0-0.316-0.05-0.45-0.149
			c-0.134-0.168-0.217-0.334-0.25-0.5c0-0.067,0-0.15,0-0.25v-0.051c-0.066-0.733,0.1-1.367,0.5-1.9v-0.049
			c0.4-0.5,0.934-0.817,1.6-0.951H12c0.3-0.033,0.616,0,0.949,0.1C13.083,17.235,13.216,17.335,13.35,17.502z M16,19.902h0.05
			c0.366-0.033,0.717,0.05,1.05,0.25c0.167,0.066,0.283,0.184,0.35,0.35c0.034,0.167,0.017,0.316-0.05,0.45
			c-0.066,0.2-0.184,0.333-0.35,0.399c-0.2,0.033-0.367,0.018-0.5-0.049c-0.167-0.101-0.334-0.15-0.5-0.15c-0.4,0-0.733,0.166-1,0.5
			H15c-0.267,0.267-0.4,0.666-0.4,1.199c0,0.134,0.017,0.268,0.05,0.4c0,0.167-0.05,0.316-0.149,0.45
			c-0.167,0.134-0.334,0.2-0.5,0.2c-0.167,0-0.317-0.051-0.45-0.15c-0.134-0.133-0.2-0.283-0.2-0.449
			c-0.033-0.134-0.05-0.284-0.05-0.451c0-0.866,0.267-1.549,0.8-2.049v-0.051C14.633,20.186,15.267,19.902,16,19.902z M2.3,21.502
			c0,0.133,0.05,0.301,0.149,0.5c0.134,0.301,0.367,0.517,0.7,0.65c0.267,0.1,0.533,0.05,0.8-0.15l0.101-0.05
			c0.066-0.134,0.149-0.217,0.25-0.25c0.2-0.067,0.383-0.05,0.55,0.05c0.134,0.033,0.233,0.117,0.3,0.25
			c0.066,0.2,0.066,0.383,0,0.551c-0.1,0.232-0.3,0.416-0.6,0.549c-0.5,0.367-1.084,0.484-1.75,0.351l-0.101-0.05
			c-0.6-0.268-1.05-0.7-1.35-1.301l-0.1-0.1c-0.134-0.333-0.217-0.633-0.25-0.9c0-0.166,0.066-0.333,0.199-0.5
			c0.101-0.133,0.233-0.199,0.4-0.199s0.35,0.05,0.55,0.15C2.25,21.186,2.3,21.336,2.3,21.502z M4.649,20.002
			c-0.267-0.666-0.233-1.316,0.101-1.949v-0.051c0.1-0.367,0.267-0.617,0.5-0.75c0.1-0.133,0.233-0.2,0.399-0.2
			c0.167-0.034,0.334,0.017,0.5,0.15c0.101,0.1,0.15,0.233,0.15,0.4c0.033,0.201,0,0.367-0.101,0.5
			c-0.1,0.101-0.216,0.25-0.35,0.451c-0.134,0.332-0.15,0.699-0.05,1.1c0.1,0.333,0.316,0.583,0.649,0.75l0.15,0.1
			c0.134,0.033,0.283,0.117,0.45,0.25c0.066,0.167,0.083,0.334,0.05,0.5c-0.066,0.133-0.184,0.267-0.35,0.4
			c-0.134,0.1-0.284,0.116-0.45,0.05c-0.233-0.067-0.417-0.149-0.55-0.25C5.216,21.152,4.85,20.669,4.649,20.002z M9.3,16.202
			c0.133,0.1,0.217,0.217,0.25,0.35c0.066,0.167,0.05,0.35-0.05,0.55c-0.101,0.133-0.233,0.217-0.4,0.25
			c-0.066,0.033-0.134,0.1-0.2,0.2l-0.1,0.05c-0.3,0.234-0.467,0.533-0.5,0.9c-0.033,0.334,0.066,0.684,0.3,1.051l0.05,0.049
			c0.066,0,0.15,0.067,0.25,0.201c0.066,0.166,0.084,0.332,0.05,0.5c-0.066,0.133-0.149,0.266-0.25,0.399
			c-0.199,0.066-0.383,0.083-0.55,0.05c-0.333-0.066-0.55-0.25-0.649-0.55c-0.334-0.567-0.483-1.184-0.45-1.851
			c0.066-0.733,0.383-1.333,0.95-1.799c0.267-0.233,0.533-0.383,0.8-0.45C8.933,16.069,9.1,16.102,9.3,16.202z M37.35,3.402
			c1.6-0.1,3.017,0.383,4.25,1.45c1.2,1.1,1.833,2.467,1.9,4.1c0.1,1.566-0.4,2.95-1.5,4.15c-1.101,1.2-2.45,1.85-4.051,1.95
			c-1.566,0.066-2.966-0.434-4.199-1.5c-0.134-0.1-0.233-0.184-0.301-0.25c-1-1.034-1.533-2.284-1.6-3.75
			c-0.033-0.767,0.05-1.45,0.25-2.05c0.233-0.8,0.65-1.533,1.25-2.2C34.449,4.102,35.783,3.469,37.35,3.402z"/>
	</g>
</g>
</svg>
