<?xml version="1.0" encoding="utf-8"?>
<!-- Generator: Adobe Illustrator 15.0.0, SVG Export Plug-In . SVG Version: 6.00 Build 0)  -->
<!DOCTYPE svg PUBLIC "-//W3C//DTD SVG 1.1//EN" "http://www.w3.org/Graphics/SVG/1.1/DTD/svg11.dtd">
<svg version="1.1" id="Layer_1" xmlns="http://www.w3.org/2000/svg" xmlns:xlink="http://www.w3.org/1999/xlink" x="0px" y="0px"
	 width="40px" height="35px" viewBox="0 0 40 35" enable-background="new 0 0 40 35" xml:space="preserve">
<g>
	<g id="Layer_1_1_">
		<path fill-rule="evenodd" clip-rule="evenodd" fill="#8F7F7F" d="M23.851,2.7h-7.7v11L10.8,23.051h2.851
			c0,0.399,0.149,0.766,0.45,1.1c0.3,0.3,0.666,0.449,1.1,0.449c0.467,0,0.834-0.149,1.1-0.449c0.334-0.334,0.5-0.7,0.5-1.1h6.15
			c-0.1-0.168-0.15-0.334-0.15-0.5c0-0.268,0.117-0.5,0.351-0.701c0.167-0.199,0.399-0.299,0.7-0.299c0.266,0,0.516,0.1,0.75,0.299
			c0.199,0.201,0.3,0.434,0.3,0.701c0,0.166-0.034,0.332-0.101,0.5h4.4l-5.35-9.351V2.7z M26.45,2.7h-1.4v10.7l9.75,16.901
			c0.101,0.1,0.15,0.216,0.15,0.35C34.983,30.75,35,30.9,35,31.1c0,0.533-0.184,0.967-0.55,1.301c-0.333,0.333-0.717,0.533-1.15,0.6
			H6.7c-0.467-0.066-0.834-0.267-1.1-0.6C5.2,32.066,5,31.633,5,31.1c0-0.199,0.017-0.35,0.05-0.449
			c0.033-0.134,0.066-0.25,0.101-0.35L14.9,13.4V2.7H13.55V1h12.9V2.7z M20.75,9.75c-0.033-0.066-0.066-0.133-0.1-0.2
			C20.55,9.45,20.5,9.333,20.5,9.2c0-0.2,0.083-0.367,0.25-0.5c0.167-0.167,0.333-0.25,0.5-0.25c0.233,0,0.417,0.083,0.55,0.25
			C21.934,8.833,22,9,22,9.2c0,0.133-0.017,0.25-0.05,0.35c-0.033,0.066-0.084,0.133-0.15,0.2c-0.133,0.133-0.316,0.2-0.55,0.2
			C21.083,9.95,20.917,9.883,20.75,9.75z M17.05,15.55c0-0.434,0.167-0.8,0.5-1.1c0.268-0.333,0.634-0.5,1.101-0.5
			c0.433,0,0.783,0.167,1.05,0.5c0.334,0.3,0.5,0.667,0.5,1.1c0,0.433-0.166,0.816-0.5,1.15c-0.267,0.267-0.617,0.4-1.05,0.4
			c-0.467,0-0.833-0.133-1.101-0.4C17.217,16.367,17.05,15.983,17.05,15.55z M19.3,20.45c-0.033,0.134-0.1,0.233-0.199,0.3
			c-0.2,0.2-0.434,0.301-0.7,0.301c-0.3,0-0.55-0.101-0.75-0.301c-0.067-0.066-0.116-0.166-0.15-0.3
			c-0.066-0.134-0.1-0.267-0.1-0.399c0-0.301,0.083-0.551,0.25-0.75c0.2-0.168,0.45-0.25,0.75-0.25c0.267,0,0.5,0.082,0.7,0.25
			c0.199,0.199,0.3,0.449,0.3,0.75C19.4,20.184,19.366,20.316,19.3,20.45z M24.851,26.85c-0.301,0.301-0.45,0.667-0.45,1.101
			c0,0.467,0.149,0.833,0.45,1.101c0.333,0.332,0.699,0.5,1.1,0.5c0.434,0,0.816-0.168,1.15-0.5c0.3-0.268,0.449-0.634,0.449-1.101
			c0-0.434-0.149-0.8-0.449-1.101c-0.334-0.299-0.717-0.449-1.15-0.449C25.55,26.4,25.184,26.551,24.851,26.85z M21.8,24.85
			c-0.232-0.266-0.516-0.399-0.85-0.399c-0.367,0-0.666,0.134-0.9,0.399c-0.266,0.234-0.399,0.518-0.399,0.851
			c0,0.366,0.134,0.649,0.399,0.851c0.234,0.266,0.533,0.399,0.9,0.399c0.334,0,0.617-0.134,0.85-0.399
			c0.268-0.201,0.4-0.484,0.4-0.851C22.2,25.367,22.067,25.084,21.8,24.85z M15.9,27.6c0,0.301,0.083,0.533,0.25,0.701
			c0.2,0.232,0.45,0.35,0.75,0.35c0.267,0,0.517-0.117,0.75-0.35c0.167-0.168,0.25-0.4,0.25-0.701c0-0.266-0.083-0.516-0.25-0.75
			c-0.233-0.199-0.483-0.299-0.75-0.299c-0.3,0-0.55,0.1-0.75,0.299C15.983,27.084,15.9,27.334,15.9,27.6z"/>
	</g>
</g>
</svg>
