<?xml version="1.0" encoding="utf-8"?>
<!-- Generator: Adobe Illustrator 15.0.0, SVG Export Plug-In . SVG Version: 6.00 Build 0)  -->
<!DOCTYPE svg PUBLIC "-//W3C//DTD SVG 1.1//EN" "http://www.w3.org/Graphics/SVG/1.1/DTD/svg11.dtd">
<svg version="1.1" id="Layer_1" xmlns="http://www.w3.org/2000/svg" xmlns:xlink="http://www.w3.org/1999/xlink" x="0px" y="0px"
	 width="40px" height="35px" viewBox="0 0 40 35" enable-background="new 0 0 40 35" xml:space="preserve">
<g>
	<g id="Layer_1_1_">
		<path fill-rule="evenodd" clip-rule="evenodd" fill="#8F7F7F" d="M37.7,22.338c0,0.033-0.017,0.066-0.05,0.101
			c-0.034,0.066-0.084,0.1-0.15,0.1l-10.2,4.449h-0.05l-0.05,0.051h-0.05l-0.25,0.1c-0.034,0-0.067,0-0.101,0s-0.066-0.017-0.1-0.05
			l-0.65-0.25c-0.399,1.433-1.2,2.717-2.399,3.851c-1.834,1.866-4.084,2.799-6.75,2.799c-2.634,0-4.9-0.933-6.801-2.799
			c-1.866-1.9-2.8-4.184-2.8-6.851c0-1.733,0.417-3.317,1.25-4.75l-4.1-1.75c-0.033,0-0.066-0.033-0.101-0.1
			c-0.033-0.033-0.05-0.083-0.05-0.15v-11.8c0-0.066,0.017-0.15,0.05-0.25v0.1c0.034-0.1,0.067-0.167,0.101-0.2l0.35-0.1v0.05
			c0.001-0.033,0.018-0.05,0.05-0.05H4.9l8.699-3.05c0.067,0,0.134,0,0.2,0l8.55,3c0.034,0,0.067,0,0.101,0l0.3,0.1
			c0.066,0.033,0.116,0.083,0.15,0.15c0.033,0.1,0.05,0.167,0.05,0.2v3.6l3.149-6.2v-0.05c0-0.033,0.017-0.067,0.051-0.1l0.449-0.8
			c0.034-0.067,0.084-0.117,0.15-0.15c0.066-0.033,0.134-0.033,0.2,0c0.1,0.034,0.166,0.083,0.2,0.15l0.449,0.85v0.05
			c0.034,0,0.051,0.017,0.051,0.05l10,19.5C37.684,22.204,37.7,22.271,37.7,22.338z M10.7,16.538c0.666-0.566,1.383-1.033,2.149-1.4
			v-5.9l-6.899-2.4v9.3l3.649,1.55c0.134-0.2,0.301-0.383,0.5-0.55v-0.05c0.2-0.2,0.4-0.367,0.601-0.5V16.538z M11.75,17.888
			c-0.134,0.1-0.267,0.217-0.4,0.351c-0.033,0-0.05,0.016-0.05,0.049c-0.3,0.301-0.55,0.584-0.75,0.851v0.051H10.5
			c0,0.033-0.017,0.049-0.05,0.049C9.483,20.571,9,22.104,9,23.838c0,2.2,0.767,4.083,2.3,5.649
			c1.566,1.533,3.434,2.301,5.601,2.301c2.199,0,4.066-0.768,5.6-2.301c1.066-1.066,1.783-2.266,2.15-3.6
			c0.033-0.133,0.05-0.25,0.05-0.35v-0.1c0.1-0.534,0.149-1.067,0.149-1.601c0-0.2,0-0.417,0-0.649
			c-0.133-1.867-0.916-3.5-2.35-4.901c-0.134-0.166-0.283-0.299-0.45-0.399l-0.1-0.15c-0.101-0.067-0.184-0.133-0.25-0.2l-0.05-0.05
			c-0.5-0.367-1.017-0.667-1.551-0.9c-0.033,0-0.05-0.017-0.05-0.05c-0.566-0.233-1.149-0.4-1.75-0.5h-0.1
			c-0.4-0.066-0.834-0.1-1.3-0.1c-1.034,0-2,0.183-2.9,0.55h-0.1c-0.733,0.3-1.434,0.717-2.101,1.25
			C11.8,17.805,11.783,17.854,11.75,17.888z M23.7,17.188c1.1,1.099,1.866,2.299,2.3,3.6V6.438l-3.05,6.1
			c0,0.034-0.017,0.067-0.05,0.1l-1.4,2.75c0.366,0.233,0.717,0.467,1.05,0.7c0.033,0,0.066,0.017,0.101,0.05
			c0.133,0.133,0.283,0.267,0.449,0.4c0.034,0,0.051,0.017,0.051,0.05c0.166,0.133,0.333,0.3,0.5,0.5
			C23.684,17.121,23.7,17.154,23.7,17.188z M16.9,14.288c0.566,0,1.116,0.034,1.649,0.1c0.5,0.067,0.983,0.184,1.45,0.35l1.3-2.6
			l-0.05-5.35l-6.75,2.45v5.3C15.233,14.371,16.033,14.288,16.9,14.288z M19.6,5.588l-5.899-2l-6.05,2.05l6,2.15L19.6,5.588z
			 M27.7,25.038l7.8-3.45l-7.8-15.2V25.038z"/>
	</g>
</g>
</svg>
