<?xml version="1.0" encoding="utf-8"?>
<!-- Generator: Adobe Illustrator 15.0.0, SVG Export Plug-In . SVG Version: 6.00 Build 0)  -->
<!DOCTYPE svg PUBLIC "-//W3C//DTD SVG 1.1//EN" "http://www.w3.org/Graphics/SVG/1.1/DTD/svg11.dtd">
<svg version="1.1" id="Layer_1" xmlns="http://www.w3.org/2000/svg" xmlns:xlink="http://www.w3.org/1999/xlink" x="0px" y="0px"
	 width="30px" height="30px" viewBox="0 0 30 30" enable-background="new 0 0 30 30" xml:space="preserve">
<symbol  id="bgFB" viewBox="0 -32 32 32">
	<g id="Layer_1_3_">
		<path fill-rule="evenodd" clip-rule="evenodd" fill="#1E4389" d="M32-29.5c0-1.667-0.833-2.5-2.5-2.5h-27
			C0.833-32,0-31.167,0-29.5v27C0-0.833,0.833,0,2.5,0h27C31.167,0,32-0.833,32-2.5V-29.5z"/>
	</g>
</symbol>
<symbol  id="logoFb" viewBox="0 -27.2 14 27.2">
	<g id="Layer_1_2_">
		<path fill-rule="evenodd" clip-rule="evenodd" fill="#FFFFFF" d="M10.95-4.6c-0.767,0-1.284-0.167-1.55-0.5
			C9.1-5.4,8.95-5.95,8.95-6.75v-3.3h4.95l-0.6-4.85H8.95v-12.3h-5v12.3H0v4.85h3.95v3.85c0,2.9,1.25,4.833,3.75,5.8
			C8.4-0.133,9.1,0,9.8,0c0.3,0,0.617,0,0.95,0C11.417,0,12.5-0.067,14-0.2v-4.4H10.95z"/>
	</g>
</symbol>
<symbol  id="logo_x5F_FB" viewBox="0 -32 32 32">
	<g id="Layer_1_4_">
		<use xlink:href="#bgFB"  width="32" height="32" id="bg_x5F_mc_1_" x="0" y="-32" overflow="visible"/>
	</g>
	<g id="Layer_2_2_">
		
			<use xlink:href="#logoFb"  width="14" height="27.2" id="picto_x5F_mc_1_" y="-27.2" transform="matrix(1 0 0 1 13.0498 -4.75)" overflow="visible"/>
	</g>
</symbol>
<use xlink:href="#logo_x5F_FB"  width="32" height="32" id="shareFb_x5F_mc" x="0" y="-32" transform="matrix(0.9375 0 0 -0.9375 0 0)" overflow="visible"/>
</svg>
