<?xml version="1.0" encoding="utf-8"?>
<!-- Generator: Adobe Illustrator 15.0.0, SVG Export Plug-In . SVG Version: 6.00 Build 0)  -->
<!DOCTYPE svg PUBLIC "-//W3C//DTD SVG 1.1//EN" "http://www.w3.org/Graphics/SVG/1.1/DTD/svg11.dtd">
<svg version="1.1" id="Layer_1" xmlns="http://www.w3.org/2000/svg" xmlns:xlink="http://www.w3.org/1999/xlink" x="0px" y="0px"
	 width="30px" height="30px" viewBox="0 0 30 30" enable-background="new 0 0 30 30" xml:space="preserve">
<symbol  id="G_x2B_Logo" viewBox="0 -32 32 32">
	<g id="Layer_1_4_">
		<use xlink:href="#bgG_x2B_"  width="32" height="32" id="bg_x5F_mc_1_" y="-32" overflow="visible"/>
	</g>
	<g id="Layer_2_2_">
		
			<use xlink:href="#logoG_x2B_"  width="31.5" height="29.85" id="picto_x5F_mc_1_" y="-29.85" transform="matrix(1 0 0 1 0 -2.1499)" overflow="visible"/>
	</g>
</symbol>
<symbol  id="bgG_x2B_" viewBox="0 -32 32 32">
	<g id="Layer_1_3_">
		<path fill-rule="evenodd" clip-rule="evenodd" fill="#D5492C" d="M32-2.3v-27.4c0-0.667-0.217-1.216-0.65-1.65
			c-0.434-0.433-0.934-0.65-1.5-0.65H2.15c-0.566,0-1.066,0.217-1.5,0.65C0.217-30.917,0-30.4,0-29.8v27.6
			c0,0.6,0.217,1.117,0.65,1.55C1.083-0.217,1.617,0,2.25,0h27.5c0.633,0,1.167-0.217,1.6-0.65C31.783-1.083,32-1.633,32-2.3z"/>
	</g>
</symbol>
<symbol  id="logoG_x2B_" viewBox="0 -29.85 31.5 29.85">
	<g id="Layer_1_2_">
		<path fill-rule="evenodd" clip-rule="evenodd" fill="#FFFFFF" d="M18.5,0l-3.05-1.7H12.5c0.3-0.2,0.633-0.483,1-0.85
			c0.4-0.4,0.767-0.883,1.1-1.45c0.333-0.5,0.617-1.117,0.85-1.85c0.267-0.667,0.4-1.5,0.4-2.5c-0.067-1.733-0.467-3.117-1.2-4.15
			c-0.367-0.533-0.75-1-1.15-1.4c-0.433-0.4-0.9-0.833-1.4-1.3c-0.3-0.3-0.567-0.65-0.8-1.05c-0.3-0.4-0.45-0.867-0.45-1.4
			c0-0.467,0.15-0.867,0.45-1.2c0.267-0.3,0.5-0.566,0.7-0.8l1.65-1.4c1.067-0.833,1.95-1.767,2.65-2.8
			c0.733-1,1.117-2.35,1.15-4.05c0-0.667-0.067-1.317-0.2-1.95H14.4v0.05c0,1.267-0.417,2.367-1.25,3.3
			c-0.8,0.8-2.117,1.867-3.95,3.2c-0.3,0-0.65,0-1.05,0c-0.267,0.066-0.9,0.05-1.9-0.05c-1-0.133-2.033-0.367-3.1-0.7
			c-0.167-0.1-0.5-0.25-1-0.45c-0.433-0.233-0.883-0.517-1.35-0.85c-0.3-0.3-0.566-0.617-0.8-0.95v2.8
			c1.2,0.533,2.417,0.917,3.65,1.15c1.7,0.233,3.117,0.383,4.25,0.45c-0.333,0.4-0.633,0.867-0.9,1.4
			c-0.367,0.567-0.55,1.183-0.55,1.85c0,0.433,0.083,0.8,0.25,1.1L7-16.7c-0.533-0.1-1.05-0.15-1.55-0.15
			c-2.3,0.067-4.117,0.733-5.45,2v11.8c0.133,0.133,0.283,0.267,0.45,0.4c1.367,1.1,2.8,1.816,4.3,2.15C6.183-0.167,7.55,0,8.85,0
			H18.5z M31.5-5.3v-2.4h-5.05v-5.2H24v5.2h-5v2.4h5v5.1h2.45v-5.1H31.5z M11.7-10.55c0,1.933-0.467,3.867-1.4,5.8
			C9.8-3.817,9.2-3.067,8.5-2.5C7.733-1.933,6.833-1.65,5.8-1.65c-1.267,0-2.333-0.5-3.2-1.5C1.867-4.283,1.5-5.5,1.5-6.8
			c0-1.733,0.533-3.583,1.6-5.55c0.467-0.867,1.083-1.6,1.85-2.2c0.833-0.6,1.75-0.9,2.75-0.9c1.233,0,2.283,0.434,3.15,1.3
			c0.4,0.633,0.667,1.283,0.8,1.95C11.683-11.533,11.7-10.983,11.7-10.55z"/>
	</g>
</symbol>
<use xlink:href="#G_x2B_Logo"  width="32" height="32" id="shareGo_x5F_mc" y="-32" transform="matrix(0.9375 0 0 -0.9375 0 0)" overflow="visible"/>
</svg>
