<?xml version="1.0" encoding="utf-8"?>
<!-- Generator: Adobe Illustrator 15.0.0, SVG Export Plug-In . SVG Version: 6.00 Build 0)  -->
<!DOCTYPE svg PUBLIC "-//W3C//DTD SVG 1.1//EN" "http://www.w3.org/Graphics/SVG/1.1/DTD/svg11.dtd">
<svg version="1.1" id="Layer_1" xmlns="http://www.w3.org/2000/svg" xmlns:xlink="http://www.w3.org/1999/xlink" x="0px" y="0px"
	 width="30px" height="30px" viewBox="0 0 30 30" enable-background="new 0 0 30 30" xml:space="preserve">
<symbol  id="bgPinterest" viewBox="0 -32 32 32">
	<g id="Layer_1_3_">
		<path fill-rule="evenodd" clip-rule="evenodd" fill="#CC2127" d="M32-16.425c-0.099-4.246-1.682-7.854-4.75-10.825
			c-3.003-3.068-6.62-4.651-10.85-4.75h-0.85c-1.44,0.039-2.815,0.248-4.125,0.625c-0.641,0.185-1.266,0.41-1.875,0.675
			c-1.791,0.792-3.441,1.941-4.95,3.45C1.629-24.279,0.096-20.671,0-16.425v0.825c0.096,4.232,1.629,7.882,4.6,10.95
			C7.667-1.647,11.326-0.097,15.575,0H16.4c4.23-0.097,7.847-1.647,10.85-4.65c3.068-3.068,4.651-6.718,4.75-10.95V-16.425z"/>
	</g>
</symbol>
<symbol  id="logoPinterest" viewBox="0 -32 32 32">
	<g id="Layer_1_4_">
		<use xlink:href="#bgPinterest"  width="32" height="32" id="bg_x5F_mc_1_" y="-32" overflow="visible"/>
	</g>
	<g id="Layer_2_2_">
		
			<use xlink:href="#pictoPinterest"  width="21.287" height="25.883" id="picto_x5F_mc_1_" x="-0.012" y="-25.9" transform="matrix(1 0 0 1 5.2998 -5.5)" overflow="visible"/>
	</g>
</symbol>
<symbol  id="pictoPinterest" viewBox="-0.012 -25.9 21.287 25.883">
	<g id="Layer_1_2_">
		<path fill-rule="evenodd" clip-rule="evenodd" fill="#FFFFFF" d="M20.45-5.7c0.966-2.367,1.083-4.933,0.35-7.7
			c-0.867-2.633-2.383-4.583-4.55-5.85c-2.067-1-4.033-1.067-5.9-0.2c-0.7,0.4-1.217,0.867-1.55,1.4
			c-0.233-0.934-0.417-1.667-0.55-2.2c-0.5-2-0.917-3.333-1.25-4c-0.233-0.633-0.5-1.167-0.8-1.6c-0.034,0-0.05-0.017-0.05-0.05
			c-0.667,0.2-1.3,0.433-1.9,0.7c0,0.6,0,1.217,0,1.85c0,0.767,0.183,1.9,0.55,3.4c0.333,1.5,0.55,2.4,0.65,2.7
			c0.267,1.1,0.667,2.6,1.2,4.5c-0.267,0.467-0.5,1.283-0.7,2.45c0.066,1.066,0.367,2,0.9,2.8c0.467,0.8,1.233,1.283,2.3,1.45
			c1.333-0.067,2.05-0.9,2.15-2.5c-0.066-0.633-0.283-1.617-0.65-2.95c-0.4-1.367-0.65-2.267-0.75-2.7
			c-0.2-0.767-0.033-1.466,0.5-2.1c0.5-0.6,1.15-0.917,1.95-0.95c1.433,0.033,2.683,0.883,3.75,2.55c0.566,1,0.95,2.083,1.15,3.25
			c0.233,1.2,0.233,2.434,0,3.7c-0.2,1.333-0.683,2.45-1.45,3.35c-1.466,1.267-3.233,1.833-5.3,1.7C8.4-2.8,6.6-3.55,5.1-4.95
			C4.067-6.017,3.383-7.333,3.05-8.9C2.817-10.5,3.133-12,4-13.4c0.167-0.2,0.25-0.35,0.25-0.45c0.067-0.2,0.017-0.583-0.15-1.15
			c-0.167-0.6-0.35-0.967-0.55-1.1c-0.066-0.033-0.233-0.033-0.5,0c-0.8,0.5-1.45,1.05-1.95,1.65c-0.5,0.733-0.833,1.567-1,2.5
			C0-11.083-0.033-10.167,0-9.2c0.067,0.867,0.267,1.817,0.6,2.85C1.7-3.783,3.717-1.967,6.65-0.9c2.833,1.066,5.783,1.167,8.85,0.3
			C17.933-1.667,19.583-3.367,20.45-5.7z"/>
	</g>
</symbol>
<use xlink:href="#logoPinterest"  width="32" height="32" id="followPin_x5F_mc" y="-32" transform="matrix(0.9375 0 0 -0.9375 0 0)" overflow="visible"/>
</svg>
