<?xml version="1.0" encoding="utf-8"?>
<!-- Generator: Adobe Illustrator 15.0.0, SVG Export Plug-In . SVG Version: 6.00 Build 0)  -->
<!DOCTYPE svg PUBLIC "-//W3C//DTD SVG 1.1//EN" "http://www.w3.org/Graphics/SVG/1.1/DTD/svg11.dtd">
<svg version="1.1" id="Layer_1" xmlns="http://www.w3.org/2000/svg" xmlns:xlink="http://www.w3.org/1999/xlink" x="0px" y="0px"
	 width="30px" height="30px" viewBox="0 0 30 30" enable-background="new 0 0 30 30" xml:space="preserve">
<symbol  id="VimeoLogo" viewBox="0 -18.675 21.768 18.691">
	<g id="Layer_1_2_">
		<path fill-rule="evenodd" clip-rule="evenodd" fill="#FFFFFF" d="M21.2-0.95c0.333-0.4,0.517-0.917,0.55-1.55
			c0.067-0.567-0.05-1.267-0.35-2.1c-0.3-0.867-0.566-1.517-0.8-1.95c-0.2-0.434-0.533-1.184-1-2.25
			c-0.533-0.934-0.833-1.45-0.9-1.55c-1.967-3.5-4.25-6.05-6.85-7.65c-0.367-0.233-0.85-0.417-1.45-0.55
			c-0.533-0.167-1.083-0.167-1.65,0C7.817-18.183,7.033-16.9,6.4-14.7c-1.066,3.767-1.883,6.45-2.45,8.05
			C3.717-6.117,3.4-5.85,3-5.85C2.667-5.783,2.233-5.867,1.7-6.1C1.2-6.267,0.817-6.233,0.55-6c0,0.067-0.1,0.167-0.3,0.3
			C0.083-5.5,0-5.35,0-5.25v0.05c0.833,0.733,1.617,1.45,2.35,2.15c1.933,1.767,3.633,2.566,5.1,2.4c0.333-0.167,0.6-0.367,0.8-0.6
			C8.483-1.55,8.7-1.933,8.9-2.4c0.2-0.5,0.317-0.867,0.35-1.1c0.1-0.3,0.2-0.733,0.3-1.3C9.65-5.5,9.7-5.867,9.7-5.9
			c0.033-0.2,0.1-0.767,0.2-1.7c0.1-1,0.217-1.767,0.35-2.3c0.167-0.533,0.467-1.1,0.9-1.7c0.3-0.333,0.617-0.5,0.95-0.5
			c0.733,0.167,1.367,0.783,1.9,1.85c0.533,0.967,0.933,2,1.2,3.1c0.066,1.033-0.217,1.717-0.85,2.05c-0.2,0.033-0.8,0.05-1.8,0.05
			c0.333,1.133,0.983,2.183,1.95,3.15c0.967,0.933,2,1.533,3.1,1.8C18.867,0.2,20.067-0.083,21.2-0.95z"/>
	</g>
</symbol>
<symbol  id="bgVimeo" viewBox="0 -32 32 32">
	<g id="Layer_1_3_">
		<path fill-rule="evenodd" clip-rule="evenodd" fill="#1EB8EB" d="M27-32H5c-3.333,0-5,1.667-5,5v22c0,3.333,1.667,5,5,5h22
			c3.333,0,5-1.667,5-5v-22C32-30.333,30.333-32,27-32z"/>
	</g>
</symbol>
<symbol  id="logoVimeo" viewBox="0 -32 32 32">
	<g id="Layer_2_2_">
		<use xlink:href="#bgVimeo"  width="32" height="32" id="bg_x5F_mc_1_" y="-32" overflow="visible"/>
	</g>
	<g id="Layer_1_4_">
		
			<use xlink:href="#VimeoLogo"  width="21.768" height="18.691" id="picto_x5F_mc_1_" y="-18.675" transform="matrix(1 0 0 1 5.2002 -7.0498)" overflow="visible"/>
	</g>
</symbol>
<use xlink:href="#logoVimeo"  width="32" height="32" id="followVi_x5F_mc" y="-32" transform="matrix(0.9375 0 0 -0.9375 0 0)" overflow="visible"/>
</svg>
