<?xml version="1.0" encoding="utf-8"?>
<!-- Generator: Adobe Illustrator 15.0.0, SVG Export Plug-In . SVG Version: 6.00 Build 0)  -->
<!DOCTYPE svg PUBLIC "-//W3C//DTD SVG 1.1//EN" "http://www.w3.org/Graphics/SVG/1.1/DTD/svg11.dtd">
<svg version="1.1" xmlns="http://www.w3.org/2000/svg" xmlns:xlink="http://www.w3.org/1999/xlink" x="0px" y="0px" width="60px"
	 height="73px" viewBox="0 0 60 73" enable-background="new 0 0 60 73" xml:space="preserve">
<symbol  id="bgClose" viewBox="0 -72.7 60 72.7">
	<g id="Layer_1_2_">
		<polygon fill-rule="evenodd" clip-rule="evenodd" fill="#D15F5F" points="0,0 60,0 60,-64.75 0,-72.7 		"/>
	</g>
</symbol>
<symbol  id="pictoClose" viewBox="0 -35.4 31.5 35.4">
	<g id="Layer_1_3_">
		<g>
			<path fill-rule="evenodd" clip-rule="evenodd" fill="#EFECE1" d="M25.5-2.85L19.15-9.2l6.35-6.35l-2.85-2.85l-6.35,6.35
				L9.95-18.4L7.1-15.55l6.35,6.35L7.1-2.85L9.95,0l6.35-6.35L22.65,0L25.5-2.85z M19.6-28.95c0.733-0.7,1.1-1.583,1.1-2.65
				c0-1.066-0.367-1.967-1.1-2.7c-0.733-0.7-1.667-1.067-2.8-1.1c-1.167,0.033-2.1,0.417-2.8,1.15c-0.7,0.7-1.067,1.55-1.1,2.55
				v0.05c0.033,1.167,0.434,2.1,1.2,2.8c0.733,0.7,1.633,1.05,2.7,1.05C17.933-27.833,18.867-28.217,19.6-28.95z M16.8-29.15
				c-0.733,0-1.316-0.25-1.75-0.75c-0.4-0.467-0.617-1.033-0.65-1.7c0.033-0.7,0.267-1.283,0.7-1.75c0.433-0.467,1-0.717,1.7-0.75
				c0.767,0.033,1.35,0.3,1.75,0.8c0.434,0.5,0.65,1.066,0.65,1.7s-0.217,1.2-0.65,1.7C18.15-29.4,17.567-29.15,16.8-29.15z
				 M12.5-35.3H8.55v7.4h1.5v-6.05h2.45V-35.3z M5.3-29.6c-0.367,0.3-0.833,0.45-1.4,0.45c-0.733,0-1.316-0.25-1.75-0.75
				c-0.4-0.467-0.617-1.033-0.65-1.7c0.033-0.667,0.267-1.25,0.7-1.75c0.433-0.467,1-0.717,1.7-0.75
				c0.667,0.033,1.15,0.217,1.45,0.55c0.333,0.333,0.533,0.583,0.6,0.75h1.6c-0.267-0.767-0.716-1.4-1.35-1.9
				c-0.633-0.466-1.4-0.7-2.3-0.7c-1.133,0.033-2.066,0.417-2.8,1.15C0.4-33.517,0.033-32.633,0-31.6c0.033,1,0.4,1.867,1.1,2.6
				c0.667,0.767,1.6,1.167,2.8,1.2c1.067-0.034,1.9-0.35,2.5-0.95c0.6-0.567,0.983-1.133,1.15-1.7h-1.6
				C5.85-30.183,5.633-29.9,5.3-29.6z M31.5-29.25h-2.65v-1.65h2.6v-1.3h-2.6v-1.75h2.65v-1.35h-4.2v7.4h4.2V-29.25z M26.25-29.95
				H24.8c-0.033,0.2-0.1,0.4-0.2,0.6c-0.133,0.2-0.383,0.3-0.75,0.3c-0.233,0-0.434-0.083-0.6-0.25c-0.2-0.133-0.3-0.333-0.3-0.6
				c0-0.233,0.117-0.434,0.35-0.6c0.267-0.133,0.7-0.333,1.3-0.6c0.566-0.2,1-0.467,1.3-0.8c0.3-0.3,0.45-0.717,0.45-1.25
				c0-0.6-0.184-1.117-0.55-1.55c-0.4-0.466-1.033-0.7-1.9-0.7c-0.833,0-1.467,0.217-1.9,0.65c-0.433,0.467-0.65,1.05-0.65,1.75h1.5
				c0.033-0.467,0.167-0.783,0.4-0.95c0.233-0.167,0.433-0.233,0.6-0.2c0.3,0,0.55,0.1,0.75,0.3c0.167,0.167,0.267,0.383,0.3,0.65
				c0,0.3-0.133,0.517-0.4,0.65c-0.267,0.167-0.667,0.35-1.2,0.55c-0.3,0.067-0.683,0.25-1.15,0.55c-0.433,0.3-0.667,0.784-0.7,1.45
				c0.033,0.733,0.3,1.283,0.8,1.65c0.467,0.367,1.017,0.55,1.65,0.55c0.533,0,1.05-0.15,1.55-0.45
				C25.917-28.583,26.183-29.15,26.25-29.95z"/>
		</g>
	</g>
</symbol>
<g id="Layer_1">
	
		<use xlink:href="#bgClose"  width="60" height="72.7" id="bg_x5F_mc" y="-72.7" transform="matrix(1 0 0 -1 0 0)" overflow="visible"/>
</g>
<g id="Layer_2">
	
		<use xlink:href="#pictoClose"  width="31.5" height="35.4" id="picto_x5F_mc" y="-35.4" transform="matrix(1 0 0 -1 14.25 17)" overflow="visible"/>
</g>
</svg>
