<?xml version="1.0" encoding="utf-8"?>
<!-- Generator: Adobe Illustrator 15.0.0, SVG Export Plug-In . SVG Version: 6.00 Build 0)  -->
<!DOCTYPE svg PUBLIC "-//W3C//DTD SVG 1.1//EN" "http://www.w3.org/Graphics/SVG/1.1/DTD/svg11.dtd">
<svg version="1.1" id="Layer_1" xmlns="http://www.w3.org/2000/svg" xmlns:xlink="http://www.w3.org/1999/xlink" x="0px" y="0px"
	 width="212px" height="25px" viewBox="0 0 212 25" enable-background="new 0 0 212 25" xml:space="preserve">
<path fill="#53444D" d="M98.045,0.97c2.135,0.505,3.859,1.533,5.182,3.082l0.012,0.014c0.087,0.086,0.188,0.214,0.307,0.385H84.257
	l0.771-3.852L95.8,0.639c0.302,0.009,0.599,0.035,0.892,0.08C97.203,0.789,97.654,0.873,98.045,0.97 M96.312,5.513h7.851
	l0.231,0.425l0.252,0.611c0.027,0.062,0.139,0.452,0.332,1.169c0.018,0.062,0.031,0.124,0.047,0.186h-5.592
	C99.304,7.694,99.16,7.49,99,7.294c-0.009-0.008-0.013-0.022-0.013-0.04c-0.442-0.549-0.979-0.988-1.608-1.315
	C97.05,5.768,96.693,5.625,96.312,5.513 M83.925,6.125l0.119-0.611h4.396l-0.518,2.391h-2.145c-0.063-0.08-0.129-0.16-0.193-0.238
	c-0.009-0.01-0.018-0.023-0.025-0.041c-0.408-0.487-0.854-0.916-1.343-1.289C84.119,6.266,84.021,6.196,83.925,6.125 M87.245,11.079
	c-0.119-0.549-0.291-1.076-0.519-1.581h0.856l-0.339,1.594L87.245,11.079L87.245,11.079z M86.076,15.463l-0.026,0.053
	c-0.091,0.396-0.202,0.78-0.332,1.155H80.79c0.127-0.333,0.229-0.685,0.306-1.049l0.026-0.081c0.15-0.743,0.166-1.43,0.047-2.059
	h5.093C86.268,14.111,86.205,14.771,86.076,15.463 M86.189,12.42h-5.374c-0.104-0.203-0.223-0.397-0.359-0.584
	c-0.734-1.019-1.899-1.554-3.493-1.607c-1.638,0.035-3.023,0.558-4.157,1.567c-0.222,0.199-0.427,0.407-0.618,0.625h-5.173
	c0.606-1.069,1.387-2.043,2.344-2.922h15.754C85.688,10.376,86.046,11.35,86.189,12.42 M83.387,20.656h-6.94
	c0.94-0.247,1.768-0.692,2.484-1.342c0.702-0.608,1.247-1.312,1.634-2.112h4.96C85.025,18.469,84.312,19.621,83.387,20.656
	 M86.462,21.041l2.896-0.014c0.483,0,0.978-0.034,1.481-0.105h9.497c-0.195,0.168-0.396,0.331-0.604,0.491l-0.025,0.026
	c-1.471,1.178-3.048,2.061-4.729,2.644l-0.041,0.013c-1.877,0.532-3.67,0.816-5.379,0.85H82.77l2.443-3.891h1.249V21.041z
	 M100.07,9.498h5.208c0.076,0.956,0.022,1.93-0.159,2.922h-5.056C100.268,11.353,100.271,10.379,100.07,9.498 M97.825,17.202h5.69
	c-0.033,0.06-0.067,0.116-0.104,0.172c-0.749,1.206-1.673,2.301-2.771,3.282h-8.468c1.472-0.361,2.776-0.967,3.919-1.807
	l0.039-0.015C96.741,18.393,97.305,17.848,97.825,17.202 M98.562,16.168c0.57-0.893,0.989-1.788,1.254-2.686h5.074
	c-0.154,0.666-0.308,1.225-0.457,1.675c-0.18,0.547-0.386,1.052-0.617,1.514h-5.594C98.34,16.509,98.453,16.34,98.562,16.168
	 M124.736,7.904h-4.94l0.405-1.912h4.941L124.736,7.904z M119.23,5.992l-0.412,1.912h-5.877c0.885-0.848,1.853-1.463,2.9-1.846
	c0.062-0.026,0.131-0.049,0.2-0.066c0.92-0.301,1.897-0.43,2.937-0.385h0.332V5.62L119.23,5.992z M121.436,0.2h4.932l-0.91,4.25
	h-4.93L121.436,0.2z M124.398,9.498l-0.625,2.922h-4.941l0.626-2.922H124.398z M104.328,20.922h4.939l-0.852,4.051h-4.953
	L104.328,20.922z M105.908,13.482h5.958c-0.703,0.879-1.249,1.94-1.642,3.188h-4.994L105.908,13.482z M104.387,20.656l0.731-3.454
	h4.954c-0.038,0.149-0.077,0.299-0.112,0.452l-0.638,3.002H104.387z M106.134,12.42l0.624-2.922h11.723l-0.258,1.209h-0.479
	c-0.612,0-1.191,0.062-1.741,0.187c-0.053,0.009-0.104,0.021-0.159,0.04c-1.105,0.25-2.092,0.747-2.955,1.487L106.134,12.42
	L106.134,12.42z M107.098,7.904l0.404-1.912h4.955l-0.398,1.912H107.098z M124.877,11.744l0.482-2.246h4.146l0.466,2.922h-4.953
	L124.877,11.744z M125.234,13.482h4.908l0.504,3.188h-4.77L125.234,13.482z M129.247,7.904H125.7l0.411-1.912h2.828L129.247,7.904z
	 M142.504,7.904h-5.146l1.136-1.912h5.22L142.504,7.904z M117.025,20.922h4.94l-0.862,4.051h-4.94L117.025,20.922z M118.607,13.482
	h4.938l-0.678,3.188h-4.938L118.607,13.482z M117.087,20.656l0.729-3.454h4.939l-0.729,3.454H117.087z M125.986,17.202h4.748
	l0.238,1.489l0.885-1.489h4.768l-2.186,3.454h-7.756L125.986,17.202z M134.057,13.482h4.92l-2.013,3.188h-4.795L134.057,13.482z
	 M126.734,20.922h7.539l-2.558,4.051h-4.157L126.734,20.922z M145.318,13.723h8.82c-0.01-0.078-0.015-0.158-0.016-0.24h4.775
	c0.004,0.646-0.047,1.324-0.152,2.033c-0.023,0.17-0.055,0.346-0.079,0.531l-0.174,0.624H139.65c0.02-0.213,0.043-0.431,0.072-0.651
	c0.027-0.211,0.063-0.424,0.106-0.637c0.026-0.105,0.058-0.209,0.093-0.307c0.157-0.549,0.348-1.081,0.572-1.594h4.939
	C145.398,13.562,145.359,13.645,145.318,13.723 M139.628,17.202h4.888c0.053,1.124,0.396,2.019,1.028,2.683
	c0.011,0,0.019,0.006,0.026,0.014c0.304,0.319,0.658,0.572,1.062,0.76h-6.35C139.814,19.623,139.596,18.471,139.628,17.202
	 M136.413,9.498h5.081l-1.846,2.922h-4.963L136.413,9.498z M143.309,9.498h14.604c0.489,0.866,0.797,1.84,0.923,2.922h-4.898
	c-0.108-0.36-0.264-0.687-0.459-0.983c-0.011-0.009-0.021-0.017-0.026-0.026c-0.638-0.895-1.589-1.341-2.854-1.341
	c-1.259,0-2.399,0.438-3.428,1.315c-0.377,0.309-0.717,0.654-1.023,1.036h-5.119C141.621,11.349,142.384,10.375,143.309,9.498
	 M156.689,7.904H145.3c1.007-0.664,2.054-1.151,3.142-1.46c0.932-0.266,1.896-0.403,2.896-0.412
	c1.055,0.009,2.001,0.146,2.844,0.412C155.154,6.753,155.993,7.241,156.689,7.904 M148.667,21.055h0.054h7.066l-2.471,3.918h-6.947
	c-0.354-0.043-0.691-0.104-1.01-0.186c-0.151-0.035-0.297-0.074-0.438-0.118c-1.442-0.444-2.644-1.233-3.601-2.364
	c-0.361-0.436-0.666-0.895-0.909-1.383h7.007c0.344,0.081,0.716,0.125,1.116,0.133H148.667z M8.829,5.513h5.101l-0.511,2.391H8.324
	L8.829,5.513z M16.832,5.992h4.941l-0.404,1.912h-4.935L16.832,5.992z M5.614,20.656l0.731-3.454h5.094l-0.737,3.454H5.614z
	 M1.058,4.451l0.817-3.905l20.178,0.04V0.6l-2.424,3.852L1.058,4.451L1.058,4.451z M16.102,9.498h4.928l-0.618,2.922H15.49
	L16.102,9.498z M13.079,9.498l-0.624,2.922H7.361l0.624-2.922H13.079z M14.495,17.202h4.941c-0.011,0.087-0.021,0.17-0.027,0.253
	c-0.08,0.912,0.058,1.634,0.412,2.166h-0.013c0.479,0.674,1.333,1.008,2.563,1.008c1.214,0,2.271-0.377,3.175-1.128
	c0.541-0.479,0.975-1.051,1.302-1.713c0.09-0.188,0.172-0.384,0.246-0.586h5.014l-0.73,3.454H14.202
	c-0.088-0.609-0.092-1.271-0.014-1.979L14.495,17.202z M7.135,13.482h5.094l-0.677,3.188H6.458L7.135,13.482z M15.271,13.482h4.915
	l-0.671,3.188h-4.908L15.271,13.482z M34.08,7.904h-4.941l0.405-1.912h4.942L34.08,7.904z M34.89,7.904l0.405-1.912h4.955
	l-0.398,1.912H34.89z M5.554,20.922h5.087l-0.863,4.051H4.691L5.554,20.922z M27.339,16.379l0.618-2.896h4.941l-0.678,3.188h-4.954
	C27.292,16.574,27.316,16.479,27.339,16.379 M14.242,20.922h17.076l-0.857,4.051h-4.954l0.57-2.629
	c-1.222,1.143-2.519,1.917-3.892,2.325c-0.009,0-0.019,0.004-0.027,0.011h-0.013c-0.576,0.161-1.169,0.26-1.78,0.293h-1.022
	c-0.673-0.033-1.289-0.138-1.847-0.304c-1.037-0.329-1.833-0.879-2.391-1.647C14.672,22.41,14.384,21.713,14.242,20.922
	 M32.121,20.922h4.94l-0.85,4.051h-4.955L32.121,20.922z M28.8,9.498h4.942l-0.618,2.922h-4.942L28.8,9.498z M33.024,16.671
	l0.677-3.188h5.958c-0.076,0.098-0.148,0.193-0.219,0.293c-0.6,0.822-1.074,1.785-1.421,2.896L33.024,16.671L33.024,16.671z
	 M32.181,20.656l0.731-3.454h4.954c-0.04,0.149-0.078,0.299-0.113,0.452l-0.637,3.002H32.181z M33.927,12.42l0.624-2.922h11.723
	l-0.259,1.209h-0.479c-0.354,0-0.699,0.022-1.036,0.066c-0.115,0.009-0.226,0.027-0.332,0.054c-0.124,0.017-0.249,0.04-0.373,0.066
	c-0.053,0.009-0.106,0.021-0.159,0.04c-1.107,0.25-2.092,0.747-2.956,1.487H33.927z M53.128,4.451h-4.935l0.903-4.25h4.928
	L53.128,4.451z M52.397,7.904h-4.934l0.505-2.391h4.935L52.397,7.904z M58.581,6.111c1.951,0.008,3.551,0.605,4.802,1.792H53.361
	C54.766,6.811,56.505,6.213,58.581,6.111 M40.735,7.904c0.063-0.06,0.127-0.12,0.193-0.179l0.577-0.485
	c0.668-0.514,1.378-0.908,2.132-1.182c0.062-0.026,0.128-0.049,0.2-0.066c0.017-0.006,0.035-0.012,0.052-0.02
	c0.207-0.065,0.417-0.123,0.631-0.172c0.029-0.006,0.062-0.013,0.099-0.02c0.688-0.147,1.405-0.205,2.152-0.172h0.332V5.62
	L47.07,5.78h0.006l-0.053,0.212l-0.412,1.912H40.735z M47.124,9.498h17.461c0.419,0.831,0.656,1.805,0.71,2.922H59.57
	c-0.093-0.203-0.206-0.393-0.338-0.571c-0.7-0.894-1.678-1.355-2.936-1.382c-1.266,0.027-2.431,0.488-3.493,1.382
	c-0.208,0.177-0.4,0.368-0.578,0.571h-5.718L47.124,9.498z M45.49,17.202h5.068c0.039,0.809,0.265,1.489,0.678,2.046
	c0.682,0.902,1.651,1.363,2.909,1.381c1.266-0.018,2.439-0.472,3.52-1.368c0.657-0.557,1.179-1.243,1.568-2.059h5.333
	c-0.452,1.312-1.041,2.463-1.767,3.454H44.76L45.49,17.202z M46.28,13.482h5.194c-0.173,0.309-0.324,0.636-0.451,0.982L51.01,14.49
	l-0.452,2.15c0,0.01,0,0.021,0,0.026h-4.954L46.28,13.482z M59.803,15.527c0.143-0.758,0.169-1.439,0.08-2.045h5.412
	c-0.03,0.642-0.111,1.324-0.246,2.045l-0.014,0.055c-0.089,0.375-0.189,0.736-0.298,1.089h-5.28
	c0.132-0.343,0.243-0.706,0.333-1.089L59.803,15.527z M77.96,6.071c2.381,0.051,4.291,0.661,5.726,1.833H71.485
	C73.413,6.739,75.571,6.128,77.96,6.071 M70.655,15.541c-0.08,0.395-0.122,0.771-0.126,1.13h-4.881
	c0.029-0.351,0.077-0.708,0.146-1.075l0.027-0.08c0.165-0.707,0.389-1.386,0.671-2.033h4.941c-0.348,0.608-0.602,1.278-0.764,2.01
	L70.655,15.541z M66.384,20.922h16.757c-0.423,0.448-0.889,0.873-1.395,1.273c-2.25,1.789-4.866,2.724-7.851,2.805
	c-2.949-0.07-5.163-0.991-6.642-2.764c-0.131-0.159-0.255-0.319-0.371-0.484C66.697,21.484,66.531,21.208,66.384,20.922
	 M44.7,20.922h17.899c-0.482,0.62-1.02,1.174-1.614,1.661c-1.975,1.594-4.109,2.396-6.402,2.403c-2.665-0.178-4.406-1.066-5.22-2.67
	v0.014c-0.009-0.01-0.014-0.02-0.014-0.025l-0.013-0.015l-0.611,2.683h-4.888L44.7,20.922z M65.614,17.202h4.935
	c0.066,0.778,0.323,1.474,0.77,2.086c0.472,0.662,1.123,1.116,1.953,1.368h-7.014C65.784,19.621,65.569,18.471,65.614,17.202"/>
<g enable-background="new    ">
	<path fill="#53444D" d="M165.054,14.5l1.644-8.875h3.033l0.612,5.721l2.675-5.721h3.046L174.42,14.5h-2.086l1.307-6.645
		l-3.154,6.645h-1.499l-0.684-6.645l-1.163,6.645H165.054z"/>
	<path fill="#53444D" d="M176.453,10.158c0.54-2.902,3.106-4.701,5.553-4.701c2.734,0,4.294,2.135,3.838,4.605
		c-0.467,2.471-2.807,4.605-5.564,4.605c-2.795,0-4.246-2.219-3.826-4.498V10.158z M178.744,10.051
		c-0.252,1.354,0.432,2.626,1.955,2.626c1.607,0,2.662-1.463,2.866-2.603c0.216-1.151-0.288-2.626-1.919-2.626
		c-1.571,0-2.675,1.343-2.902,2.59V10.051z"/>
	<path fill="#53444D" d="M187.889,5.625h3.262c0.912,0,1.607,0.204,2.039,0.6c0.443,0.384,0.611,0.972,0.468,1.727
		c-0.12,0.684-0.563,1.38-1.354,1.787c1.33,0.504,1.139,1.691,1.078,2.063c-0.131,0.707-0.551,1.487-1.175,1.931
		c-0.947,0.684-1.547,0.768-3.046,0.768h-2.914L187.889,5.625z M188.884,12.509h1.067c0.145,0,0.432,0,0.684-0.107
		c0.276-0.108,0.516-0.324,0.6-0.744c0.072-0.384-0.084-0.575-0.312-0.671c-0.204-0.097-0.491-0.097-0.671-0.097h-1.068
		L188.884,12.509z M189.531,8.995h0.804c0.156,0,0.396,0,0.612-0.084c0.228-0.096,0.42-0.276,0.479-0.624
		c0.06-0.336-0.06-0.504-0.24-0.587c-0.18-0.084-0.419-0.084-0.6-0.084h-0.804L189.531,8.995z"/>
	<path fill="#53444D" d="M195.652,5.625h2.267l-1.644,8.875h-2.266L195.652,5.625z"/>
	<path fill="#53444D" d="M199.588,5.625h2.268l-1.271,6.884h2.626l-0.372,1.991h-4.893L199.588,5.625z"/>
	<path fill="#53444D" d="M205.373,5.625h5.024l-0.372,1.991h-2.758l-0.252,1.379h2.674l-0.371,1.991h-2.675l-0.276,1.522h2.76
		l-0.373,1.991h-5.024L205.373,5.625z"/>
</g>
<g enable-background="new    ">
	<path fill="#53444D" d="M166.697,15.625h3.262c0.911,0,1.607,0.204,2.039,0.6c0.443,0.384,0.611,0.972,0.467,1.727
		c-0.119,0.684-0.562,1.38-1.354,1.787c1.331,0.504,1.14,1.691,1.079,2.063c-0.132,0.707-0.552,1.487-1.176,1.931
		c-0.947,0.684-1.547,0.768-3.046,0.768h-2.914L166.697,15.625z M167.691,22.509h1.068c0.144,0,0.432,0,0.684-0.107
		c0.275-0.108,0.516-0.324,0.6-0.744c0.072-0.384-0.084-0.575-0.312-0.671c-0.203-0.097-0.491-0.097-0.671-0.097h-1.067
		L167.691,22.509z M168.34,18.995h0.804c0.155,0,0.396,0,0.611-0.084c0.228-0.096,0.42-0.276,0.479-0.624
		c0.061-0.336-0.06-0.504-0.24-0.587c-0.18-0.084-0.419-0.084-0.6-0.084h-0.803L168.34,18.995z"/>
	<path fill="#53444D" d="M174.461,15.625h5.024l-0.372,1.991h-2.758l-0.252,1.379h2.674l-0.371,1.991h-2.675l-0.276,1.522h2.76
		l-0.373,1.991h-5.024L174.461,15.625z"/>
	<path fill="#53444D" d="M181.492,17.616h-1.752l0.373-1.991h5.756l-0.371,1.991h-1.739l-1.271,6.884h-2.267L181.492,17.616z"/>
	<path fill="#53444D" d="M186.184,24.5h-2.458l5.157-8.875h1.955l1.763,8.875h-2.482l-0.181-1.283h-3.105L186.184,24.5z
		 M189.254,18.323l-1.522,3.095h1.955L189.254,18.323z"/>
</g>
</svg>
