<?xml version="1.0" encoding="utf-8"?>
<!-- Generator: Adobe Illustrator 15.0.0, SVG Export Plug-In . SVG Version: 6.00 Build 0)  -->
<!DOCTYPE svg PUBLIC "-//W3C//DTD SVG 1.1//EN" "http://www.w3.org/Graphics/SVG/1.1/DTD/svg11.dtd">
<svg version="1.1" id="Layer_1" xmlns="http://www.w3.org/2000/svg" xmlns:xlink="http://www.w3.org/1999/xlink" x="0px" y="0px"
	 width="30px" height="30px" viewBox="0 0 30 30" enable-background="new 0 0 30 30" xml:space="preserve">
<path fill-rule="evenodd" clip-rule="evenodd" fill="#594951" d="M17,8.7V5.3l8.55,6.4L17,18.45v-3.7
	c-0.4-0.133-0.851-0.217-1.351-0.25c-0.833-0.1-1.816-0.017-2.949,0.25c-2.234,0.433-4.816,1.833-7.75,4.2
	c0.266-2.4,1.6-4.717,4-6.95c0.333-0.367,0.75-0.717,1.25-1.05c0.467-0.3,0.916-0.583,1.35-0.85c0.066-0.067,0.15-0.117,0.25-0.15
	C13.399,9.15,15.134,8.733,17,8.7z"/>
<polygon fill-rule="evenodd" clip-rule="evenodd" fill="#594951" points="24,15.75 24,25 0,25 0,8 10.399,8 7.55,10 2,10 2,23 
	22,23 22,17.399 "/>
<path fill-rule="evenodd" clip-rule="evenodd" fill="#594951" d="M17,8.7V5.3l8.55,6.4L17,18.45v-3.7
	c-0.4-0.133-0.851-0.217-1.351-0.25c-0.833-0.1-1.816-0.017-2.949,0.25c-2.234,0.433-4.816,1.833-7.75,4.2
	c0.266-2.4,1.6-4.717,4-6.95c0.333-0.367,0.75-0.717,1.25-1.05c0.467-0.3,0.916-0.583,1.35-0.85c0.066-0.067,0.15-0.117,0.25-0.15
	C13.399,9.15,15.134,8.733,17,8.7z"/>
<polygon fill-rule="evenodd" clip-rule="evenodd" fill="#594951" points="24,15.75 24,25 0,25 0,8 10.399,8 7.55,10 2,10 2,23 
	22,23 22,17.399 "/>
</svg>
