<?xml version="1.0" encoding="utf-8"?>
<!-- Generator: Adobe Illustrator 15.0.0, SVG Export Plug-In . SVG Version: 6.00 Build 0)  -->
<!DOCTYPE svg PUBLIC "-//W3C//DTD SVG 1.1//EN" "http://www.w3.org/Graphics/SVG/1.1/DTD/svg11.dtd">
<svg version="1.1" id="Layer_1" xmlns="http://www.w3.org/2000/svg" xmlns:xlink="http://www.w3.org/1999/xlink" x="0px" y="0px"
	 width="30px" height="30px" viewBox="0 0 30 30" enable-background="new 0 0 30 30" xml:space="preserve">
<path fill-rule="evenodd" clip-rule="evenodd" fill="#594951" d="M18.265,15.8l5.789,5.799V11.95L18.265,15.8z M22.657,23
	l-6.039-6.049l-2.994,1.898c-0.167,0.102-0.35,0.15-0.549,0.15c-0.2,0-0.383-0.049-0.549-0.15L9.582,16.9L3.443,23H22.657z
	 M24.054,9.55V9H2.046v0.55l10.68,7.001c0.1,0.033,0.216,0.049,0.35,0.049c0.199,0,0.382-0.049,0.549-0.148l2.595-1.651
	c0-0.033,0.017-0.051,0.05-0.051L24.054,9.55z M0.05,7H26v18H0.05V10.6H0l0.05-0.1V7z M2.046,21.6l5.839-5.85L2.046,11.95V21.6z"/>
</svg>
