<?xml version="1.0" encoding="utf-8"?>
<!-- Generator: Adobe Illustrator 15.0.0, SVG Export Plug-In . SVG Version: 6.00 Build 0)  -->
<!DOCTYPE svg PUBLIC "-//W3C//DTD SVG 1.1//EN" "http://www.w3.org/Graphics/SVG/1.1/DTD/svg11.dtd">
<svg version="1.1" id="Layer_1" xmlns="http://www.w3.org/2000/svg" xmlns:xlink="http://www.w3.org/1999/xlink" x="0px" y="0px"
	 width="100px" height="100px" viewBox="0 0 100 100" enable-background="new 0 0 100 100" xml:space="preserve">
<rect opacity="0.6" fill="#200F25" width="100" height="99.85"/>
<g>
	<g id="Layer_1_1_">
		<rect x="11.1" y="11.1" fill="#3C2940" fill-opacity="0.2" width="77.8" height="77.65"/>
	</g>
	<g id="Layer_2">
		<path fill="#8F7F7F" d="M37.6,22.3L63.699,37L37.6,51.65V22.3z M100,0v99.85H0V0H100z M88.9,11.1H11.1v77.65h77.8V11.1z"/>
		<g>
			<path fill="#8F7F7F" d="M31.29,61.646c2.25,0,3.151,0.324,3.925,0.918c0.973,0.793,1.513,2.09,1.513,3.402
				c0,1.314-0.558,2.684-1.404,3.367c-0.9,0.738-1.801,1.062-3.745,1.062h-1.638v4.572h-2.683V61.646H31.29z M29.939,68.037h1.584
				c0.612,0,1.207-0.055,1.747-0.342c0.486-0.252,0.882-0.846,0.882-1.692c0-0.846-0.396-1.403-0.918-1.655
				c-0.54-0.289-1.152-0.343-1.818-0.343H29.94L29.939,68.037L29.939,68.037z"/>
			<path fill="#8F7F7F" d="M38.254,61.646h2.683v10.963h4.375v2.359h-7.058V61.646z"/>
			<path fill="#8F7F7F" d="M48.479,74.971h-2.917l5.401-13.324h2.359l5.275,13.324h-2.937l-0.972-2.611h-5.258L48.479,74.971z
				 M52.025,64.814l-1.892,5.4h3.837L52.025,64.814z"/>
			<path fill="#8F7F7F" d="M61.259,70.198l-4.087-8.554h2.898l2.521,6.051l2.538-6.051h2.881l-4.068,8.554v4.771h-2.683V70.198z"/>
		</g>
	</g>
</g>
</svg>
